# xmcd
#
# Track frame offsets:
#	150
#	16051
#	32552
#	54003
#	95703
#	108753
#	128404
#	147454
#	185105
#	201005
#
# Disc length: 3068 seconds
#
# Revision: 0
# Processed by: cddbd v1.5.2PL0 Copyright (c) Steve Scherf et al.
# Submitted via: dBpowerAMP V4.0
#
DISCID=7c0bfa0a
DTITLE=Jo Martin - Turnaround
DYEAR=2003
DGENRE=Blues Rock
TTITLE0=Invisible Men
TTITLE1=Groovin'
TTITLE2=Two arms up
TTITLE3=Never got to play Jeffrey's Bay
TTITLE4=Hangin' on
TTITLE5=Trinity
TTITLE6=Locomotive Breath
TTITLE7=07.45 am
TTITLE8=Specified Itch Blues
TTITLE9=Pathwinders
EXTD=
EXTT0=
EXTT1=
EXTT2=
EXTT3=
EXTT4=
EXTT5=
EXTT6=
EXTT7=
EXTT8=
EXTT9=
PLAYORDER=
